<svg width="105" height="35" viewBox="0 0 105 35" fill="none" xmlns="http://www.w3.org/2000/svg">
<g clip-path="url(#clip0)">
<path d="M44.7614 17.8885C44.7614 22.7303 40.9179 26.2981 36.2011 26.2981C31.4843 26.2981 27.6409 22.7303 27.6409 17.8885C27.6409 13.0126 31.4843 9.47888 36.2011 9.47888C40.9179 9.47888 44.7614 13.0126 44.7614 17.8885ZM41.0141 17.8885C41.0141 14.8629 38.7865 12.7927 36.2011 12.7927C33.6157 12.7927 31.3882 14.8629 31.3882 17.8885C31.3882 20.8838 33.6157 22.9843 36.2011 22.9843C38.7865 22.9843 41.0141 20.88 41.0141 17.8885Z" fill="#EA4335"/>
<path d="M63.2284 17.8885C63.2284 22.7303 59.3849 26.2981 54.6681 26.2981C49.9513 26.2981 46.1079 22.7303 46.1079 17.8885C46.1079 13.0164 49.9513 9.47888 54.6681 9.47888C59.3849 9.47888 63.2284 13.0126 63.2284 17.8885ZM59.4811 17.8885C59.4811 14.8629 57.2535 12.7927 54.6681 12.7927C52.0827 12.7927 49.8552 14.8629 49.8552 17.8885C49.8552 20.8838 52.0827 22.9843 54.6681 22.9843C57.2535 22.9843 59.4811 20.88 59.4811 17.8885Z" fill="#FBBC05"/>
<path d="M80.9259 9.98695V25.0849C80.9259 31.2954 77.2094 33.8319 72.8158 33.8319C68.68 33.8319 66.1908 31.1058 65.252 28.8764L68.5145 27.538C69.0955 28.9067 70.519 30.5219 72.812 30.5219C75.6243 30.5219 77.3672 28.8119 77.3672 25.5929V24.3834H77.2364C76.3977 25.4033 74.7818 26.2944 72.7427 26.2944C68.4761 26.2944 64.5672 22.6317 64.5672 17.9188C64.5672 13.1718 68.4761 9.47888 72.7427 9.47888C74.7779 9.47888 76.3938 10.3699 77.2364 11.3595H77.3672V9.99074H80.9259V9.98695ZM77.6326 17.9188C77.6326 14.9577 75.6282 12.7927 73.0774 12.7927C70.4921 12.7927 68.326 14.9577 68.326 17.9188C68.326 20.8497 70.4921 22.9843 73.0774 22.9843C75.6282 22.9843 77.6326 20.8497 77.6326 17.9188Z" fill="#4285F4"/>
<path d="M86.7931 1.13745V25.7825H83.1382V1.13745H86.7931Z" fill="#34A853"/>
<path d="M101.036 20.6563L103.944 22.5673C103.006 23.936 100.744 26.2944 96.8347 26.2944C91.9871 26.2944 88.3668 22.6014 88.3668 17.8847C88.3668 12.8837 92.0179 9.4751 96.4153 9.4751C100.844 9.4751 103.01 12.9481 103.717 14.825L104.106 15.7804L92.6988 20.4364C93.5722 22.1237 94.9303 22.9844 96.8347 22.9844C98.7429 22.9844 100.066 22.0592 101.036 20.6563ZM92.0833 17.6307L99.7086 14.5103C99.2893 13.46 98.0273 12.7282 96.5423 12.7282C94.6379 12.7282 91.9871 14.3851 92.0833 17.6307Z" fill="#EA4335"/>
<path d="M13.8062 15.7008V12.1329H26.006C26.1252 12.7548 26.1868 13.4903 26.1868 14.2865C26.1868 16.9634 25.4443 20.2734 23.0512 22.6317C20.7236 25.0204 17.7497 26.2943 13.81 26.2943C6.50786 26.2943 0.367573 20.4326 0.367573 13.2363C0.367573 6.03994 6.50786 0.178223 13.81 0.178223C17.8497 0.178223 20.7275 1.74034 22.8896 3.77639L20.335 6.29397C18.7846 4.86077 16.684 3.74606 13.8062 3.74606C8.47383 3.74606 4.30336 7.98121 4.30336 13.2363C4.30336 18.4914 8.47383 22.7265 13.8062 22.7265C17.2649 22.7265 19.2347 21.3578 20.4966 20.1141C21.52 19.1056 22.1933 17.6648 22.4587 15.697L13.8062 15.7008Z" fill="#4285F4"/>
</g>
<defs>
<clipPath id="clip0">
<rect width="104.646" height="34.8822" fill="white" transform="translate(0.228943)"/>
</clipPath>
</defs>
</svg>
