<svg width="106" height="31" viewBox="0 0 106 31" fill="none" xmlns="http://www.w3.org/2000/svg">
<path d="M12.1845 5.4408V13.8745H4.50011V5.4408H0.851852V25.5728H4.50011V17.413H12.1845V25.5728H15.8328V5.4408H12.1845Z" fill="#33475B"/>
<path d="M27.5085 19.0651C27.5085 19.872 27.1906 20.6457 26.6245 21.2163C26.0585 21.7868 25.2908 22.1073 24.4904 22.1073C23.6899 22.1073 22.9222 21.7868 22.3562 21.2163C21.7902 20.6457 21.4722 19.872 21.4722 19.0651V10.4423H18.0116V19.0651C18.0116 20.7954 18.6936 22.4548 19.9074 23.6782C21.1212 24.9017 22.7675 25.589 24.4841 25.589C26.2007 25.589 27.847 24.9017 29.0609 23.6782C30.2747 22.4548 30.9566 20.7954 30.9566 19.0651V10.4423H27.5085V19.0651Z" fill="#33475B"/>
<path d="M53.1484 11.3305C53.1484 9.56306 54.3085 9.00273 55.5794 9.00273C56.6037 9.00273 57.9568 9.78827 58.8416 10.7414L61.1081 8.04964C59.9766 6.50739 57.6815 5.4408 55.8029 5.4408C52.0491 5.4408 49.334 7.65687 49.334 11.3305C49.334 18.1463 57.5993 15.9843 57.5993 19.7984C57.5993 20.9749 56.466 22.0145 55.1683 22.0145C53.1216 22.0145 52.4585 21.0056 51.5183 19.939L49.0033 22.5748C50.612 24.5657 52.5961 25.5764 54.9735 25.5764C58.5395 25.5764 61.4084 23.3333 61.4084 19.8273C61.4084 12.2602 53.1431 14.6114 53.1431 11.3305" fill="#33475B"/>
<path d="M104.281 22.3568C102.236 22.3568 101.655 21.4649 101.655 20.0993V14.0546H104.833V10.9917H101.655V6.95056L98.1463 8.53785V20.8506C98.1463 23.9999 100.302 25.5872 103.259 25.5872C103.722 25.5957 104.186 25.5583 104.642 25.4755L105.498 22.2991C105.112 22.3262 104.669 22.3532 104.281 22.3532" fill="#33475B"/>
<path d="M40.6806 10.5432C38.9664 10.5432 37.7706 11.0441 36.6141 12.1881V5.56152H33.1481V17.8436C33.1481 22.4415 36.446 25.5909 40.1515 25.5909C44.2627 25.5909 47.8788 22.3857 47.8788 18.0688C47.8788 13.806 44.5505 10.545 40.6806 10.545V10.5432ZM40.6591 22.0758C39.8814 22.0758 39.1211 21.8433 38.4744 21.4078C37.8277 20.9722 37.3236 20.3532 37.026 19.6289C36.7284 18.9046 36.6505 18.1077 36.8022 17.3388C36.954 16.5699 37.3285 15.8636 37.8785 15.3093C38.4284 14.755 39.1291 14.3775 39.8919 14.2245C40.6548 14.0716 41.4455 14.1501 42.164 14.4501C42.8826 14.7501 43.4967 15.2581 43.9289 15.91C44.361 16.5618 44.5916 17.3281 44.5916 18.1121C44.5916 19.1633 44.1773 20.1715 43.4398 20.9148C42.7023 21.6582 41.7021 22.0758 40.6591 22.0758Z" fill="#33475B"/>
<path d="M78.3142 17.8851C78.3142 13.561 74.7052 10.363 70.5869 10.363C66.8814 10.363 63.5835 13.5124 63.5835 18.1103V30.3996H67.0495V23.764C68.2042 24.9062 69.4018 25.4089 71.1142 25.4089C74.9841 25.4089 78.3124 22.1497 78.3124 17.8851H78.3142ZM75.0323 17.8418C75.0323 18.6258 74.8017 19.3921 74.3696 20.044C73.9375 20.6958 73.3233 21.2038 72.6048 21.5038C71.8862 21.8038 71.0955 21.8823 70.3327 21.7294C69.5699 21.5764 68.8692 21.1989 68.3192 20.6446C67.7693 20.0903 67.3947 19.384 67.243 18.6151C67.0913 17.8462 67.1691 17.0493 67.4668 16.325C67.7644 15.6007 68.2684 14.9817 68.9151 14.5461C69.5618 14.1106 70.3221 13.8781 71.0999 13.8781C72.1428 13.8781 73.1431 14.2957 73.8806 15.0391C74.618 15.7824 75.0323 16.7906 75.0323 17.8418Z" fill="#33475B"/>
<path d="M89.5111 10.1936V6.68394C89.9713 6.46722 90.3609 6.12322 90.6347 5.69198C90.9084 5.26074 91.055 4.76001 91.0573 4.24806V4.16699C91.0573 3.45023 90.7748 2.76283 90.272 2.25601C89.7692 1.74919 89.0872 1.46446 88.3761 1.46446H88.2957C87.5846 1.46446 86.9026 1.74919 86.3997 2.25601C85.8969 2.76283 85.6144 3.45023 85.6144 4.16699V4.24806C85.6168 4.76001 85.7634 5.26074 86.0371 5.69198C86.3108 6.12322 86.7004 6.46722 87.1606 6.68394V10.1936C85.8381 10.3976 84.5924 10.9501 83.5499 11.7953L74.0012 4.29851C74.0687 4.05129 74.1048 3.7964 74.1084 3.54C74.1095 2.93771 73.9333 2.34863 73.6022 1.84728C73.271 1.34592 72.7998 0.954814 72.2481 0.723423C71.6964 0.492031 71.0891 0.430751 70.5028 0.547334C69.9166 0.663918 69.3778 0.953127 68.9547 1.37838C68.5315 1.80363 68.243 2.34583 68.1256 2.93638C68.0082 3.52693 68.0672 4.13931 68.2951 4.69606C68.5231 5.25281 68.9097 5.72892 69.4061 6.06417C69.9025 6.39941 70.4864 6.57873 71.084 6.57945C71.6065 6.57709 72.1193 6.4367 72.5712 6.17227L81.9751 13.5466C81.1301 14.8329 80.6893 16.3461 80.71 17.8887C80.7307 19.4313 81.2121 20.9318 82.0913 22.1947L79.2313 25.0774C79 25.0029 78.7591 24.9635 78.5163 24.9603C78.0258 24.9606 77.5464 25.1075 77.1386 25.3825C76.7309 25.6574 76.4132 26.048 76.2256 26.5048C76.0381 26.9617 75.9891 27.4644 76.0849 27.9493C76.1806 28.4342 76.4169 28.8797 76.7638 29.2293C77.1106 29.5789 77.5526 29.817 78.0337 29.9136C78.5148 30.0101 79.0135 29.9608 79.4667 29.7717C79.92 29.5827 80.3075 29.2624 80.5803 28.8515C80.853 28.4405 80.9988 27.9572 80.9992 27.4628C80.9961 27.2181 80.9569 26.9752 80.883 26.7421L83.7125 23.89C84.6352 24.6057 85.7081 25.099 86.8492 25.3322C87.9902 25.5654 89.169 25.5323 90.2954 25.2354C91.4217 24.9385 92.4657 24.3857 93.3474 23.6193C94.2291 22.853 94.925 21.8934 95.382 20.8141C95.8389 19.7347 96.0447 18.5643 95.9836 17.3924C95.9225 16.2206 95.5962 15.0784 95.0295 14.0532C94.4628 13.0281 93.6709 12.1474 92.7144 11.4784C91.7579 10.8094 90.6622 10.3699 89.5111 10.1936ZM88.3386 21.7352C87.5646 21.7345 86.8081 21.5026 86.1649 21.0686C85.5216 20.6347 85.0205 20.0184 84.7247 19.2974C84.4289 18.5765 84.3518 17.7833 84.5031 17.0182C84.6544 16.2531 85.0273 15.5504 85.5747 14.9989C86.1222 14.4474 86.8195 14.0718 87.5787 13.9196C88.3378 13.7675 89.1246 13.8456 89.8398 14.144C90.5549 14.4425 91.1662 14.9479 91.5964 15.5965C92.0266 16.245 92.2564 17.0076 92.2567 17.7877C92.2567 18.8342 91.8443 19.8378 91.1102 20.5778C90.376 21.3177 89.3803 21.7334 88.3421 21.7334" fill="#FF7A59"/>
</svg>
