<svg width="161" height="41" viewBox="0 0 161 41" fill="none" xmlns="http://www.w3.org/2000/svg">
<g clip-path="url(#clip0)" filter="url(#filter0_d)">
<path d="M58.2543 18.9018L57.3484 21.4629H57.2729C57.1219 20.8854 56.8451 20.0066 56.3922 18.952L51.5357 6.77415H46.7798V26.1834H49.9252V14.2064C49.9252 13.4531 49.9252 12.5994 49.9001 11.5449C49.8749 11.0176 49.8246 10.6158 49.7994 10.3145H49.8749C50.0259 11.0678 50.202 11.6202 50.3278 11.9717L56.1657 26.1332H58.3801L64.1677 11.8462C64.2935 11.5197 64.4193 10.8669 64.5451 10.3145H64.6206C64.5451 11.7457 64.4948 13.0263 64.4696 13.8047V26.1081H67.8164V6.72394H63.2366L58.2543 18.9018ZM70.9869 12.1977H74.2582V26.1081H70.9869V12.1977ZM72.6477 6.32219C72.0941 6.32219 71.6412 6.52306 71.2637 6.87459C70.8863 7.22611 70.685 7.67808 70.685 8.23047C70.685 8.75776 70.8863 9.20972 71.2637 9.56125C71.6412 9.91277 72.0941 10.0885 72.6477 10.0885C73.2013 10.0885 73.6794 9.88767 74.0317 9.56125C74.4091 9.20972 74.6105 8.75776 74.6105 8.23047C74.6105 7.70319 74.4091 7.25122 74.0317 6.87459C73.7046 6.52306 73.2265 6.32219 72.6477 6.32219ZM85.8585 12.0721C85.2545 11.9466 84.6255 11.8713 84.0215 11.8713C82.5369 11.8713 81.1781 12.1977 80.0457 12.8505C78.9134 13.5034 78.0075 14.4073 77.4287 15.5372C76.8248 16.6922 76.5229 18.023 76.5229 19.5546C76.5229 20.8854 76.8248 22.0655 77.4036 23.1452C77.9823 24.1998 78.7876 25.0535 79.8696 25.631C80.9013 26.2085 82.1091 26.5098 83.4679 26.5098C85.0281 26.5098 86.3617 26.1834 87.4186 25.5808L87.4438 25.5557V22.5426L87.3179 22.643C86.8398 22.9945 86.2862 23.2959 85.7326 23.4716C85.1539 23.6725 84.6255 23.7729 84.1725 23.7729C82.864 23.7729 81.8323 23.3963 81.1026 22.5677C80.3477 21.7642 79.9702 20.6594 79.9702 19.2784C79.9702 17.8472 80.3477 16.7173 81.1278 15.8887C81.9078 15.0601 82.9395 14.6333 84.1977 14.6333C85.2545 14.6333 86.3366 14.9848 87.3179 15.6878L87.4438 15.7883V12.5994L87.4186 12.5743C86.9908 12.3986 86.5127 12.1977 85.8585 12.0721ZM96.6535 11.9717C95.8483 11.9717 95.0934 12.2228 94.4392 12.7501C93.8856 13.202 93.5081 13.8549 93.181 14.6333H93.1558V12.1977H89.8846V26.1081H93.1558V19.0022C93.1558 17.797 93.4075 16.7926 93.9611 16.0645C94.5146 15.3112 95.2192 14.9346 96.0748 14.9346C96.3767 14.9346 96.6787 15.0099 97.0561 15.0601C97.4084 15.1606 97.6601 15.261 97.8362 15.3865L97.962 15.487V12.2228L97.8865 12.1977C97.6601 12.047 97.2071 11.9717 96.6535 11.9717ZM105.561 11.8964C103.271 11.8964 101.435 12.5743 100.151 13.9051C98.8427 15.2359 98.2137 17.0688 98.2137 19.3789C98.2137 21.5382 98.8679 23.2959 100.126 24.5764C101.384 25.8319 103.095 26.4847 105.234 26.4847C107.474 26.4847 109.26 25.8068 110.544 24.4509C111.852 23.095 112.481 21.2871 112.481 19.0524C112.481 16.8429 111.877 15.0852 110.644 13.8047C109.462 12.5241 107.725 11.8964 105.561 11.8964ZM108.178 22.5928C107.574 23.3712 106.618 23.7478 105.436 23.7478C104.253 23.7478 103.297 23.3712 102.617 22.5426C101.938 21.7642 101.611 20.6343 101.611 19.2031C101.611 17.7217 101.963 16.5918 102.617 15.7883C103.297 14.9848 104.228 14.583 105.41 14.583C106.568 14.583 107.474 14.9597 108.128 15.7381C108.782 16.5164 109.135 17.6463 109.135 19.1278C109.084 20.6343 108.807 21.8144 108.178 22.5928ZM119.779 17.9728C118.747 17.5459 118.093 17.2195 117.791 16.9433C117.539 16.6922 117.413 16.3407 117.413 15.8887C117.413 15.5121 117.564 15.1354 117.942 14.8843C118.319 14.6333 118.747 14.5077 119.376 14.5077C119.93 14.5077 120.508 14.6082 121.062 14.7588C121.616 14.9095 122.119 15.1354 122.521 15.4367L122.647 15.5372V12.4739L122.572 12.4488C122.194 12.2981 121.691 12.1475 121.087 12.0219C120.483 11.9215 119.93 11.8713 119.477 11.8713C117.917 11.8713 116.633 12.2479 115.627 13.0765C114.62 13.8549 114.142 14.9095 114.142 16.1398C114.142 16.7926 114.243 17.3701 114.469 17.8472C114.696 18.3243 115.023 18.7762 115.476 19.1529C115.929 19.5044 116.583 19.9061 117.489 20.2828C118.244 20.6092 118.822 20.8603 119.175 21.0612C119.527 21.262 119.753 21.488 119.93 21.6638C120.055 21.8646 120.131 22.1157 120.131 22.4422C120.131 23.3712 119.426 23.8231 117.992 23.8231C117.438 23.8231 116.86 23.7227 116.18 23.4967C115.501 23.2707 114.872 22.9443 114.343 22.5677L114.218 22.4673V25.6561L114.293 25.6812C114.771 25.9072 115.35 26.0578 116.054 26.2336C116.759 26.3591 117.388 26.4596 117.942 26.4596C119.628 26.4596 121.012 26.083 121.993 25.2544C123 24.4509 123.528 23.4214 123.528 22.0906C123.528 21.1616 123.276 20.333 122.723 19.7053C121.993 19.1027 121.087 18.4749 119.779 17.9728ZM132.159 11.8964C129.869 11.8964 128.032 12.5743 126.749 13.9051C125.466 15.2359 124.811 17.0688 124.811 19.3789C124.811 21.5382 125.466 23.2959 126.724 24.5764C127.982 25.8319 129.693 26.4847 131.832 26.4847C134.071 26.4847 135.858 25.8068 137.141 24.4509C138.45 23.095 139.079 21.2871 139.079 19.0524C139.079 16.8429 138.475 15.0852 137.242 13.8047C136.059 12.5241 134.323 11.8964 132.159 11.8964ZM134.751 22.5928C134.147 23.3712 133.191 23.7478 132.008 23.7478C130.8 23.7478 129.869 23.3712 129.19 22.5426C128.51 21.7642 128.183 20.6343 128.183 19.2031C128.183 17.7217 128.535 16.5918 129.19 15.7883C129.869 14.9848 130.8 14.583 131.983 14.583C133.115 14.583 134.046 14.9597 134.7 15.7381C135.355 16.5164 135.707 17.6463 135.707 19.1278C135.707 20.6343 135.38 21.8144 134.751 22.5928ZM156.567 14.8843V12.1977H153.271V8.07982L153.17 8.10493L150.05 9.03396L149.975 9.05907V12.1977H145.043V10.4401C145.043 9.63658 145.244 9.00885 145.596 8.60711C145.948 8.20536 146.477 8.00449 147.131 8.00449C147.584 8.00449 148.062 8.10493 148.591 8.33091L148.716 8.40624V5.56892L148.641 5.54381C148.188 5.39316 147.584 5.29272 146.804 5.29272C145.823 5.29272 144.967 5.51871 144.187 5.89534C143.407 6.32219 142.828 6.8997 142.4 7.67808C141.973 8.43135 141.746 9.28505 141.746 10.2643V12.1977H139.456V14.8592H141.746V26.1081H145.043V14.8843H149.975V22.0404C149.975 24.9782 151.359 26.4596 154.127 26.4596C154.58 26.4596 155.058 26.3843 155.511 26.3089C155.989 26.2085 156.341 26.083 156.542 25.9825L156.567 25.9574V23.2707L156.442 23.3712C156.24 23.4967 156.064 23.5972 155.762 23.6725C155.511 23.7478 155.284 23.7729 155.108 23.7729C154.454 23.7729 154.001 23.6223 153.674 23.2456C153.372 22.8941 153.221 22.3166 153.221 21.4629V14.8843H156.567Z" fill="#737373"/>
<path d="M4.60608 0.24585H20.0312V15.6376H4.60608V0.24585Z" fill="#F25022"/>
<path d="M21.6415 0.24585H37.0666V15.6376H21.6415V0.24585Z" fill="#7FBA00"/>
<path d="M4.60608 17.2446H20.0312V32.6364H4.60608V17.2446Z" fill="#00A4EF"/>
<path d="M21.6415 17.2446H37.0666V32.6364H21.6415V17.2446Z" fill="#FFB900"/>
</g>
<defs>
<filter id="filter0_d" x="0.606079" y="0.24585" width="159.987" height="40.3906" filterUnits="userSpaceOnUse" color-interpolation-filters="sRGB">
<feFlood flood-opacity="0" result="BackgroundImageFix"/>
<feColorMatrix in="SourceAlpha" type="matrix" values="0 0 0 0 0 0 0 0 0 0 0 0 0 0 0 0 0 0 127 0" result="hardAlpha"/>
<feOffset dy="4"/>
<feGaussianBlur stdDeviation="2"/>
<feComposite in2="hardAlpha" operator="out"/>
<feColorMatrix type="matrix" values="0 0 0 0 0 0 0 0 0 0 0 0 0 0 0 0 0 0 0.25 0"/>
<feBlend mode="normal" in2="BackgroundImageFix" result="effect1_dropShadow"/>
<feBlend mode="normal" in="SourceGraphic" in2="effect1_dropShadow" result="shape"/>
</filter>
<clipPath id="clip0">
<rect width="151.987" height="32.3906" fill="white" transform="translate(4.60608 0.24585)"/>
</clipPath>
</defs>
</svg>
