<svg width="17" height="16" viewBox="0 0 17 16" fill="none" xmlns="http://www.w3.org/2000/svg">
<path fill-rule="evenodd" clip-rule="evenodd" d="M16.6737 5.8322L11.3459 5.05813L8.96416 0.230426C8.89635 0.115117 8.77258 0.0443115 8.63881 0.0443115C8.50505 0.0443115 8.38127 0.115117 8.31347 0.230426L5.93065 5.05704L0.601413 5.8322C0.464709 5.85193 0.351058 5.94756 0.308236 6.07887C0.265415 6.21018 0.300847 6.35442 0.399639 6.45095L4.25585 10.2092L3.34569 15.5155C3.32246 15.6516 3.37841 15.789 3.49004 15.8702C3.60167 15.9513 3.74966 15.9621 3.8719 15.898L8.63754 13.3929L13.4032 15.897C13.5254 15.961 13.6734 15.9502 13.785 15.8691C13.8967 15.7879 13.9526 15.6505 13.9294 15.5145L13.0192 10.2092L16.8754 6.45095C16.9742 6.35447 17.0097 6.2103 16.967 6.07901C16.9242 5.94771 16.8107 5.85205 16.674 5.8322H16.6737Z" fill="#F5A623"/>
</svg>
