<svg width="147" height="41" viewBox="0 0 147 41" fill="none" xmlns="http://www.w3.org/2000/svg">
<g clip-path="url(#clip0)" filter="url(#filter0_d)">
<path opacity="0.8" d="M53.5344 11.7667V13.6023H53.5905C54.251 12.6195 55.3476 11.4621 57.7781 11.4621C59.669 11.4621 61.1196 12.4246 61.7413 13.8785H61.7974C62.3284 13.1434 62.9371 12.587 63.6192 12.1931C64.4265 11.7261 65.3245 11.458 66.4556 11.458C69.0157 11.458 71.2822 13.1231 71.2822 17.3224V25.2863H67.3795V17.8787C67.3795 15.7507 66.611 14.5202 65.0137 14.5202C63.8437 14.5202 62.9932 15.2593 62.6695 16.169C62.5572 16.4817 62.5054 16.9081 62.5054 17.2655V25.2904H58.6027V17.5782C58.6027 15.771 57.8645 14.5161 56.2887 14.5161C55.0281 14.5161 54.2381 15.4502 53.9143 16.2502C53.7761 16.5914 53.733 16.9853 53.733 17.3549V25.2863H49.826V11.7667H53.5344ZM91.426 11.7667V14.3171H91.5339C92.2505 12.3677 93.9515 11.4621 95.4452 11.4621C95.8208 11.4621 96.028 11.4905 96.3302 11.5474V15.0887C95.9719 15.04 95.6395 14.9913 95.1732 14.9913C93.4809 14.9913 92.3023 15.9172 92.0045 17.367C91.9397 17.6676 91.9181 17.9925 91.9181 18.3661V25.2904H87.9118V11.7667H91.426ZM101.77 7.28723V11.5433H105.154V14.9872H101.77V20.0677C101.77 21.7125 102.215 22.5085 103.536 22.5085C104.157 22.5085 104.615 22.4354 105.012 22.342L105.064 25.197C104.533 25.3838 103.402 25.5868 102.253 25.5868C100.902 25.5868 99.7753 25.1442 99.0889 24.4578C98.3032 23.674 97.9405 22.3907 97.9405 20.5632V7.28723H101.77ZM47.1061 25.2863H43.2207V7.28723H47.1061V25.2863ZM36.745 20.4576C36.745 20.7053 36.7234 20.9652 36.65 21.1886C36.3478 22.1267 35.316 22.9186 34.0295 22.9186C32.9545 22.9186 32.0998 22.346 32.0998 21.1317C32.0998 19.2758 34.2756 18.76 36.7493 18.7722V20.4576H36.745ZM40.6261 17.2208C40.6261 14.1547 39.236 11.4621 34.5346 11.4621C32.1213 11.4621 30.2045 12.0997 29.1598 12.6683L29.9239 15.1293C30.878 14.5608 32.402 14.0937 33.8439 14.0937C36.2313 14.0897 36.6198 15.3649 36.6198 16.1812V16.3761C31.4176 16.368 28.1323 18.0615 28.1323 21.5135C28.1323 23.6212 29.803 25.5949 32.7128 25.5949C34.5044 25.5949 35.9981 24.9249 36.8961 23.8486H36.9824C36.9824 23.8486 37.5782 26.1838 40.8506 25.2904C40.6779 24.3157 40.6218 23.2801 40.6218 22.0333V17.2208H40.6261ZM8.61448 7.28723C9.01598 9.19192 10.1557 14.7232 10.1557 14.7232C10.6349 16.9975 11.0753 19.3814 11.4077 21.2657H11.4681C11.7919 19.2636 12.3013 17.367 12.8453 15.0197L14.7664 7.28723H19.0188L20.8147 15.2187C21.2853 17.4239 21.6609 19.1255 21.9588 21.1764H22.0149C22.3387 19.1052 22.7618 17.3345 23.2237 15.0684L24.9506 7.28723H29.0303L23.9749 25.2863C20.7543 25.9483 19.5196 24.7299 19.0792 22.7968C18.6389 20.8596 17.7755 17.1762 17.7755 17.1762C17.3308 15.1578 16.9854 13.7364 16.7437 11.6652H16.6832C16.3379 13.7161 15.9752 15.1537 15.4399 17.1721L13.3202 25.2904C10.0305 25.9077 8.89078 24.9939 8.26048 22.5125C7.71652 20.3885 4.32324 7.29129 4.32324 7.29129H8.61448V7.28723ZM81.4361 20.4576C81.4361 20.7053 81.4145 20.9652 81.3411 21.1886C81.0389 22.1267 80.0071 22.9186 78.7206 22.9186C77.6456 22.9186 76.7908 22.346 76.7908 21.1317C76.7908 19.2758 78.9667 18.76 81.4404 18.7722V20.4576H81.4361ZM85.3172 17.2208C85.3172 14.1547 83.9271 11.4621 79.2257 11.4621C76.8124 11.4621 74.8956 12.0997 73.8509 12.6683L74.615 15.1293C75.5691 14.5608 77.093 14.0937 78.535 14.0937C80.918 14.0897 81.3109 15.3649 81.3109 16.1812V16.3761C76.113 16.368 72.8277 18.0615 72.8277 21.5135C72.8277 23.6212 74.5027 25.5949 77.4082 25.5949C79.1955 25.5949 80.6935 24.9249 81.5872 23.8486H81.6778C81.6778 23.8486 82.2736 26.1838 85.546 25.2904C85.3733 24.3157 85.3172 23.2801 85.3172 22.0333V17.2208Z" fill="#041E42"/>
<path d="M120.905 19.0873C121.288 19.7447 121.262 20.4783 120.853 20.8133L113.787 25.6944C113.051 26.1142 111.95 25.6053 111.326 24.5409C110.697 23.4722 110.809 22.2806 111.545 21.8608L119.368 18.2731C119.859 18.0865 120.522 18.43 120.905 19.0873ZM130.204 19.0873C130.591 18.43 131.25 18.0908 131.74 18.2689L139.568 21.8565C140.304 22.2764 140.411 23.468 139.787 24.5367C139.159 25.6011 138.053 26.1057 137.322 25.6901L130.256 20.8091C129.851 20.4783 129.821 19.7404 130.204 19.0873ZM125.552 21.7335C126.323 21.7335 126.955 22.1237 127.041 22.6368L127.803 31.1098C127.803 31.9494 126.809 32.6364 125.557 32.6364C124.309 32.6364 123.31 31.9494 123.31 31.1098L124.068 22.6368C124.154 22.1237 124.786 21.7335 125.552 21.7335ZM130.256 12.0732L137.322 7.1879C138.053 6.76807 139.159 7.27271 139.787 8.34137C140.411 9.41003 140.304 10.6017 139.568 11.0215L131.74 14.6134C131.25 14.7915 130.587 14.4522 130.204 13.7949C129.821 13.1376 129.851 12.404 130.256 12.0732ZM119.368 14.6134L111.545 11.0215C110.814 10.6017 110.702 9.41003 111.326 8.34137C111.95 7.27271 113.056 6.76807 113.787 7.1879L120.853 12.0732C121.262 12.3997 121.288 13.1376 120.905 13.7949C120.522 14.4522 119.859 14.7915 119.368 14.6134ZM124.068 10.2455L123.31 1.77251C123.31 0.932845 124.304 0.24585 125.557 0.24585C126.809 0.24585 127.803 0.932845 127.803 1.77251L127.041 10.2455C126.955 10.7543 126.323 11.1487 125.552 11.1487C124.786 11.1487 124.154 10.7543 124.068 10.2455ZM141.698 25.6604V25.4484H141.892C141.956 25.4484 141.999 25.4908 141.999 25.5544C141.999 25.6138 141.956 25.6604 141.892 25.6604H141.698ZM141.539 26.0464C141.539 26.0676 141.556 26.0888 141.582 26.0888H141.664C141.685 26.0888 141.707 26.0676 141.707 26.0464V25.8046H141.84L141.948 26.0591C141.956 26.076 141.969 26.0888 141.986 26.0888H142.085C142.116 26.0888 142.137 26.0591 142.124 26.0294C142.085 25.9531 142.047 25.8725 142.008 25.7919C142.072 25.7707 142.171 25.7071 142.171 25.5544C142.171 25.3933 142.038 25.3 141.905 25.3H141.582C141.56 25.3 141.539 25.3212 141.539 25.3424V26.0464ZM141.19 25.6944C141.19 25.3509 141.474 25.071 141.823 25.071C142.171 25.071 142.455 25.3466 142.455 25.6944C142.455 26.0379 142.176 26.3178 141.823 26.3178C141.47 26.3178 141.19 26.0379 141.19 25.6944ZM141.04 25.6944C141.04 26.1184 141.388 26.4662 141.823 26.4662C142.253 26.4662 142.606 26.1184 142.606 25.6944C142.606 25.2703 142.253 24.9226 141.823 24.9226C141.388 24.9226 141.04 25.2703 141.04 25.6944Z" fill="#FFC124"/>
</g>
<defs>
<filter id="filter0_d" x="0.323242" y="0.24585" width="146.283" height="40.3906" filterUnits="userSpaceOnUse" color-interpolation-filters="sRGB">
<feFlood flood-opacity="0" result="BackgroundImageFix"/>
<feColorMatrix in="SourceAlpha" type="matrix" values="0 0 0 0 0 0 0 0 0 0 0 0 0 0 0 0 0 0 127 0" result="hardAlpha"/>
<feOffset dy="4"/>
<feGaussianBlur stdDeviation="2"/>
<feComposite in2="hardAlpha" operator="out"/>
<feColorMatrix type="matrix" values="0 0 0 0 0 0 0 0 0 0 0 0 0 0 0 0 0 0 0.25 0"/>
<feBlend mode="normal" in2="BackgroundImageFix" result="effect1_dropShadow"/>
<feBlend mode="normal" in="SourceGraphic" in2="effect1_dropShadow" result="shape"/>
</filter>
<clipPath id="clip0">
<rect width="138.283" height="32.3906" fill="white" transform="translate(4.32324 0.24585)"/>
</clipPath>
</defs>
</svg>
